<svg xmlns="http://www.w3.org/2000/svg" viewBox="0 0 350.49818 340.33259"><defs><style>.a{fill:#74b172;}.b{fill:#67a964;}</style></defs><title>background</title><path class="a" d="M73.668,166.55814a12.74607,12.74607,0,0,0-20.463,15.19129,7.65743,7.65743,0,0,1,1.2236,5.63786.71369.71369,0,0,0-.00622.1118l-1.42412,6.38411a.65236.65236,0,0,0,.49471.7788l.63463.14157a3.61462,3.61462,0,0,0,2.52793,3.9939l2.89087.64487a3.61422,3.61422,0,0,0,3.98524-2.541l.63463.14156a.65264.65264,0,0,0,.7788-.49471l1.44684-6.486.00137-.00415a7.16509,7.16509,0,0,1,3.57116-4.61017A12.73683,12.73683,0,0,0,73.668,166.55814ZM60.81093,176.3762l-.97848-.21827a1.00253,1.00253,0,1,1,1.19675-.76021Zm4.72183.02614a1.00275,1.00275,0,1,1,.76063,1.19685l-.97763-.21809ZM62.1565,189.73369l2.83144.63162-1.17384,5.26214-.58284-.13-.00415-.00137-.00434-.00053-8.21754-1.8331-.00415-.00137-.00434-.00053-.58242-.12992,1.17384-5.26214,6.09842,1.36038m-2.09272-1.8037,2.20649-9.89136,1.95994.4372-2.19206,9.89458Zm.23671,10.34367-2.89088-.64487a2.27161,2.27161,0,0,1-1.52364-2.433l6.8273,1.523A2.27083,2.27083,0,0,1,59.83057,198.16883Zm9.48483-13.85236a8.56421,8.56421,0,0,0-4.00517,4.78385l-2.46891-.55075,2.19248-9.89448.97551.21761a2.30735,2.30735,0,1,0-1.75025-2.7536l-.21681.97792-1.95781-.43673.21827-.97849a2.30734,2.30734,0,1,0-2.75435,1.74964l.97848.21827-2.20649,9.89136-2.53513-.56552a8.85628,8.85628,0,0,0-1.515-5.9796,11.4458,11.4458,0,1,1,15.0452,3.32052Z"/><path class="a" d="M312.15023,173.00881l-3.21854-2.17468v-6.52406l3.21854-2.1312a.66321.66321,0,0,0,.30446-.52192.60342.60342,0,0,0-.30446-.52193l-16.57111-11.13439a.74726.74726,0,0,0-.7394,0l-20.442,13.657a.33959.33959,0,0,0-.174.174v.04349a.523.523,0,0,0-.087.34795v11.96077a.60342.60342,0,0,0,.30445.52193l16.57111,11.04741a.57846.57846,0,0,0,.348.13048.49385.49385,0,0,0,.34795-.13048l20.48555-13.657a.66321.66321,0,0,0,.30446-.52192A.75885.75885,0,0,0,312.15023,173.00881Zm-16.91906-21.65988L310.628,161.61345l-2.52264,1.65277a.94709.94709,0,0,0-.34795.21746l-16.44063,10.96043-12.35222-8.22032c-.04349-.04349-.087-.04349-.087-.087l-2.95757-1.95722ZM279.182,167.96354l11.74331,7.82887a.7472.7472,0,0,0,.73939,0l15.9622-10.656v5.34973l-16.22316,10.69945L279.182,173.35676v-5.39322Zm12.13475,18.44134L275.398,175.79241V165.4409l2.52264,1.65276v6.61105a.74345.74345,0,0,0,.30446.56542l12.87414,8.26381a.46863.46863,0,0,0,.34795.087.8193.8193,0,0,0,.348-.087l16.26666-10.69946,2.56613,1.73975Z"/><path class="a" d="M292.40407,157.30757l7.74189,5.30624a.69407.69407,0,0,0,.348.13048.56794.56794,0,0,0,.52193-.30446.64391.64391,0,0,0-.174-.91336l-7.69839-5.30624a.65746.65746,0,0,0-.7394,1.08734Z"/><path class="a" d="M85.46714,59.31191a5.26653,5.26653,0,0,0-2.74581-3.61,3.59963,3.59963,0,0,0-.07311-.74272,3.98018,3.98018,0,0,0-4.117-3.15664,3.5722,3.5722,0,0,0-.0747-.67574,3.97525,3.97525,0,0,0-4.494-3.11092.64425.64425,0,0,0-.10517.01127c-.017.00355-.03319.00914-.05056.0132-.01712.00313-.03417.00446-.05163.0081a3.526,3.526,0,0,0-.58746.17847A4.18361,4.18361,0,0,0,65.209,50.6896l5.852,28.0666a5.30309,5.30309,0,0,0,10.25133.50385,4.099,4.099,0,0,0,.6141-.04007,4.75673,4.75673,0,0,0,4.04432-5.37637,4.61906,4.61906,0,0,0-.49456-1.51321,6.157,6.157,0,0,0-.7512-9.10462A5.242,5.242,0,0,0,85.46714,59.31191Zm.26732,7.80244a4.854,4.854,0,0,1-1.04579,4.13626A4.868,4.868,0,0,0,80.2099,69.8577a.65241.65241,0,0,0,.26634,1.27734,3.55268,3.55268,0,0,1,3.69062,1.54435,3.40982,3.40982,0,0,1-3.28132,5.24927.6526.6526,0,0,0-.71142.52154,3.99825,3.99825,0,0,1-7.836.04018l-5.852-28.0666a2.87663,2.87663,0,0,1,5.55168-1.47966,3.97259,3.97259,0,0,0-1.26,3.78417A.65241.65241,0,1,0,72.055,52.462a2.617,2.617,0,1,1,5.1229-1.0686,2.61935,2.61935,0,0,1,.02212.87109.65434.65434,0,0,0,.01124.22647c.00406.01736.00829.03337.01319.04834l-.00115.01579a.65275.65275,0,0,0,.82647.65672c.04365-.01221.08678-.027.16282-.05439A2.672,2.672,0,0,1,81.37,55.22523a2.61834,2.61834,0,0,1,.02705.81586.652.652,0,0,0,.40256.67136,3.96074,3.96074,0,0,1,2.352,2.72715l.00064.0052a3.96772,3.96772,0,1,1-7.76837,1.61974.65241.65241,0,0,0-1.27734.26634,5.26221,5.26221,0,0,0,8.68972,2.8332A4.84355,4.84355,0,0,1,85.73446,67.11435Z"/><path class="a" d="M58.27847,47.85525a4.17152,4.17152,0,0,0-3.32255,4.16935,3.53488,3.53488,0,0,0-.61026.07126c-.017.00356-.03319.00915-.05056.01321-.01712.00313-.03417.00446-.05163.0081a.64551.64551,0,0,0-.10091.0317,3.97487,3.97487,0,0,0-2.87585,4.64757,3.60781,3.60781,0,0,0,.20158.64929,3.98019,3.98019,0,0,0-2.51242,4.53891,3.6067,3.6067,0,0,0,.2298.71005,5.24124,5.24124,0,0,0,1.16939,7.69877,6.15641,6.15641,0,0,0,2.94951,8.64625,4.59891,4.59891,0,0,0,.1519,1.58511,4.756,4.756,0,0,0,5.85541,3.31177,4.2291,4.2291,0,0,0,.57842-.209,5.30294,5.30294,0,0,0,9.19586-4.55825L63.23393,51.10187A4.19291,4.19291,0,0,0,58.27847,47.85525Zm9.531,31.57937a3.998,3.998,0,0,1-7.19871,3.09465.65263.65263,0,0,0-.66914-.26656.642.642,0,0,0-.19142.07279,3.42214,3.42214,0,0,1-5.09211-3.60155c.00147-.00786-.00107-.01577,0-.02354A3.5494,3.5494,0,0,1,57.453,75.92707a.65241.65241,0,1,0-.26633-1.27734A4.89912,4.89912,0,0,0,53.58644,77.728a4.84243,4.84243,0,0,1-2.00469-6.84661,5.26257,5.26257,0,0,0,6.83381-6.07.65241.65241,0,0,0-1.27734.26634,3.96793,3.96793,0,0,1-7.76879,1.61983l-.001-.00246a3.96156,3.96156,0,0,1,1.06519-3.44233.652.652,0,0,0,.10081-.77586,2.61,2.61,0,0,1-.30134-.75911A2.67218,2.67218,0,0,1,52.32707,58.56l.00937-.002c.0451-.00318.09011-.00679.13544-.01313a.65217.65217,0,0,0,.49256-.93619l-.00616-.01249-.00545-.04107a.64635.64635,0,0,0-.08145-.218,2.62972,2.62972,0,0,1-.32793-.80777,2.617,2.617,0,1,1,5.12308-1.06774.65241.65241,0,0,0,1.27734-.26634A3.97258,3.97258,0,0,0,56.27652,52.23a2.87663,2.87663,0,0,1,5.68041-.86229l5.85213,28.067Z"/><path class="a" d="M282.83366,303.40106l-4.55585-10.21436c-.23962-.48947-.27732-.62175-.39617-.88821l-5.667-12.65788.40846-9.25516,2.694.1189a.66891.66891,0,0,0,.68053-.623l.14766-3.34576a.66892.66892,0,0,0-.623-.68054l-13.383-.59063a.66891.66891,0,0,0-.68054.623l-.14766,3.34577a.66891.66891,0,0,0,.623.68053l2.694.1189-.40654,9.2117-6.762,12.15289c-.14186.255-.23835.46838-.47287.84985l-5.438,9.7733a.69728.69728,0,0,0,.01469.65369.63383.63383,0,0,0,.55144.32909l30.11185,1.32893a.74345.74345,0,0,0,.57829-.27923A.69171.69171,0,0,0,282.83366,303.40106ZM265.417,279.776a.62867.62867,0,0,0,.10032-.30032l.443-10.03729a.66891.66891,0,0,0-.623-.68053l-2.694-.1189.09013-2.04221,12.0795.5331-.09013,2.04222-2.694-.1189a.66891.66891,0,0,0-.68053.623l-.443,10.03728a.80618.80618,0,0,0,.07348.308l5.5878,12.48024c-.223.12077-.35912.24537-.53676.3246a1.14355,1.14355,0,0,1-.88437.30926,1.21441,1.21441,0,0,1-.85369-.386,2.54253,2.54253,0,0,0-1.62239-.72465,2.4432,2.4432,0,0,0-1.67992.5789,1.15529,1.15529,0,0,1-1.65115-.07287,2.54263,2.54263,0,0,0-1.62239-.72464,2.44318,2.44318,0,0,0-1.67992.5789,1.1553,1.1553,0,0,1-1.65116-.07287,2.41971,2.41971,0,0,0-3.30231-.14574,1.15529,1.15529,0,0,1-1.65115-.07287,1.564,1.564,0,0,0-.50608-.37062Zm-12.2019,21.96964,4.91974-8.88191a1.15286,1.15286,0,0,1,.25112.22876,2.5425,2.5425,0,0,0,1.62239.72464,2.44315,2.44315,0,0,0,1.67992-.5789,1.1553,1.1553,0,0,1,1.65116.07287,2.41971,2.41971,0,0,0,3.30231.14574,1.15529,1.15529,0,0,1,1.65115.07287,2.5425,2.5425,0,0,0,1.62239.72464,2.4431,2.4431,0,0,0,1.67992-.5789,1.11365,1.11365,0,0,1,.84092-.31118,1.29314,1.29314,0,0,1,.85369.386,2.41971,2.41971,0,0,0,3.30231.14574c.09074-.08307.17956-.12268.2703-.20575l4.11816,9.28079Z"/><path class="a" d="M193.50329,145.29307l-.71477-5.25787a.66891.66891,0,0,0-.73434-.55858l-15.77362,2.14428-.42769-3.1461a.65241.65241,0,1,0-1.29292.17576l.42769,3.1461-15.73053,2.13843a.66891.66891,0,0,0-.55858.73434l.71476,5.25788.11718.86194,2.10327,15.47195a.66891.66891,0,0,0,.73434.55858l9.99858-1.35922-1.42613,14.37156a.64834.64834,0,0,0,.57953.71131l.17239-.02344a.70687.70687,0,0,0,.582-.56195l1.47132-14.685,4.439-.60344,1.4178,10.42955a.65241.65241,0,0,0,1.29292-.17576l-1.41781-10.42956,4.30974-.58587,5.46735,13.74171a.65333.65333,0,0,0,.71091.38619l.17239-.02344a.64832.64832,0,0,0,.36861-.84019l-5.34015-13.45175,10.08478-1.37093a.66892.66892,0,0,0,.55858-.73434S193.53258,145.50856,193.50329,145.29307Zm-1.91981-4.43565.59759,4.39593-31.50415,4.28271-.59759-4.39593ZM162.83878,165.439l-1.9861-14.61,31.50415-4.28271,1.9861,14.61Z"/><path class="a" d="M268.46388,72.96028a.64535.64535,0,0,0,.06831-.19071l3.98912-22.76a.64125.64125,0,0,0,.00042-.20393l-.00364-.02713a.64883.64883,0,0,0-.0837-.2178l-.0051-.01369-.00595-.00635a.65431.65431,0,0,0-.16511-.17156l-.01392-.01127a.64357.64357,0,0,0-.20968-.09107l-.02233-.00612-.02062-.00582-35.6456-6.24757-.02179-.00162-.02094-.00146a.651.651,0,0,0-.2313.01466l-.01312.00432a.64492.64492,0,0,0-.21648.10645l-.00768.00351-.00939.01072a.652.652,0,0,0-.15328.1767c-.00493.008-.00815.01623-.01272.0247a.641.641,0,0,0-.069.19192l-3.9892,22.7604a.64529.64529,0,0,0,0,.20665l.00328.02663a.65271.65271,0,0,0,.08526.219l.0049.01234.00765.00929a.6592.6592,0,0,0,.0576.07191c.00929.01.017.02152.02677.03119a.60471.60471,0,0,0,.08118.06589c.00711.00478.013.01155.02018.0159a.65307.65307,0,0,0,.24324.09606l35.64517,6.2475a.64531.64531,0,0,0,.26142-.00761c.0129-.003.02539-.0088.038-.01277a.66579.66579,0,0,0,.0852-.0301c.01442-.00675.028-.01628.04217-.024a.59908.59908,0,0,0,.0718-.04438l.01237-.00755.01-.0115a.65206.65206,0,0,0,.1522-.17556A.23919.23919,0,0,0,268.46388,72.96028ZM236.6207,45.21954l9.08441,11.7752-12.56137,8.06261Zm20.52162,13.28082a.62227.62227,0,0,0-.14555.07207c-.01684.013-.02508.03226-.04036.04636l-5.60108,3.56379L237.77712,44.58236l32.33273,5.66693Zm-10.63693-.46853,4.18077,5.41911a.65163.65163,0,0,0,.86667.1519l5.703-3.62852L266.34291,71.724l-32.33915-5.66806Zm11.85617,1.239,12.61909-8.02909-3.47877,19.84809Z"/><path class="a" d="M119.9869,258.08192a.69844.69844,0,0,0-.50776-.13551l-6.52037,1.09125-.50255-3.00279a.66891.66891,0,0,0-.75115-.53577L93.388,258.56466a.66892.66892,0,0,0-.53577.75115l.50255,3.00279-6.69195,1.12a.69843.69843,0,0,0-.436.29346.6541.6541,0,0,0-.09262.50059,26.113,26.113,0,0,0,2.12761,5.86183c2.08346,4.01708,4.90245,6.63219,8.22078,7.488a10.922,10.922,0,0,0,7.5549,6.14418l.02154.12869a6.31466,6.31466,0,0,1-5.10747,7.42549.66892.66892,0,0,0-.53577.75115l.61024,3.64625a.66892.66892,0,0,0,.75115.53577l18.23127-3.0512a.66892.66892,0,0,0,.53577-.75115l-.61024-3.64626a.66892.66892,0,0,0-.75115-.53576,6.49682,6.49682,0,0,1-7.46139-5.322l-.01435-.08579a10.881,10.881,0,0,0,5.2927-8.42666c2.723-1.911,4.50116-5.25138,5.13458-9.635a24.01041,24.01041,0,0,0,.103-6.23516A.51747.51747,0,0,0,119.9869,258.08192Zm-32.42233,6.5287,6.0056-1.0051,1.723,10.2953a11.43261,11.43261,0,0,0,.52338,2.07325C90.43811,273.8755,88.15238,266.80537,87.56457,264.61062Zm29.183,24.97068.39487,2.35935-16.94436,2.83582-.39487-2.35934a7.53952,7.53952,0,0,0,5.53573-8.55553,10.125,10.125,0,0,0,1.65881-.10123,8.623,8.623,0,0,0,1.47986-.38A7.8273,7.8273,0,0,0,116.74762,289.5813Zm-8.278-7.5666a7.557,7.557,0,0,1-1.6371.49448,7.00912,7.00912,0,0,1-1.93055.0585,2.34342,2.34342,0,0,0-.45051-.0569c-3.76148-.60523-7.08159-4.10665-7.86414-8.78244L94.254,259.78678l17.03016-2.85018.43075,2.57383.13641.815,1.76611,10.55269c.78254,4.67579-1.21658,9.06744-4.61892,10.87162m6.10739-9.09219a15.54155,15.54155,0,0,0-.16584-2.04489l-1.723-10.2953,5.834-.97639C119.2099,261.60756,119.35777,268.815,115.10592,272.65759Z"/><path class="a" d="M110.25283,265.00286l-3.60372.07394-2.12564-2.95165a1.122,1.122,0,0,0-1.04425-.44261h0a1.0428,1.0428,0,0,0-.84322.7585l-1.04875,3.48292-3.43141,1.10347a1.0819,1.0819,0,0,0-.7359.87283,1.00414,1.00414,0,0,0,.43687,1.02936l2.99023,2.05727-.01186,3.61808a1.02768,1.02768,0,0,0,.60127.95773,1.06828,1.06828,0,0,0,.67936.1068.87686.87686,0,0,0,.45033-.20766l2.98736-2.17572,3.36141,1.11318a1.06967,1.06967,0,0,0,1.101-.27246,1.11264,1.11264,0,0,0,.25667-1.10132l-1.18926-3.417,2.15743-2.91879a1.02342,1.02342,0,0,0,.0779-1.11551A1.2697,1.2697,0,0,0,110.25283,265.00286Zm-2.48553,4.12027a.54323.54323,0,0,0-.07826.58638l1.16772,3.28836-3.21835-1.04892a.74115.74115,0,0,0-.60056.10051l-2.90875,2.11846.02621-3.53228a.64309.64309,0,0,0-.26492-.52894l-2.84717-1.993,3.30272-1.08193a.67347.67347,0,0,0,.41443-.42215l.98449-3.33987,2.01831,2.83732a.57722.57722,0,0,0,.5293.2642l3.475-.0524Z"/><rect class="b" x="-349.50182" y="339.97089" width="350" height="340"/></svg>